<svg id="Capa_1" enable-background="new 0 0 512 512" height="512" viewBox="0 0 512 512" width="512" xmlns="http://www.w3.org/2000/svg"><g><g><path d="m413 373h85v124h-85z" fill="#ffda2d"/><path d="m328 373h85v124h-85z" fill="#febf01"/><path d="m243 373h85v124h-85z" fill="#fd4e26"/><path d="m158 373h85v124h-85z" fill="#ff3924"/><path d="m328 435h85v62h-85z" fill="#fe9100"/><path d="m158 435h85v62h-85z" fill="#d8270f"/><path d="m413 435h85v62h-85z" fill="#febf01"/><path d="m243 435h85v62h-85z" fill="#fd3018"/><path d="m512 358h-435c-42.46 0-77 34.54-77 77s34.54 77 77 77h435zm-338.26 124v-94h54.75v94zm84.75 0v-94h54.76v94zm84.76 0v-94h54.75v94zm84.75 0v-94h54v94z" fill="#f5fbff"/><path d="m512 512h-435c-42.46 0-77-34.54-77-77h173.74v47h54.75v-47h30v47h54.76v-47h30v47h54.75v-47h30v47h54v-47h30z" fill="#cae1f9"/></g><g><path d="m302.16 105.395h85v124h-85z" fill="#ffda2d" transform="matrix(.707 -.707 .707 .707 -17.418 292.74)"/><path d="m242.056 165.499h85v124h-85z" fill="#a5d12c" transform="matrix(.707 -.707 .707 .707 -77.522 267.844)"/><path d="m181.952 225.603h85v124h-85z" fill="#32d736" transform="matrix(.707 -.707 .707 .707 -137.626 242.948)"/><path d="m121.848 285.707h85v124h-85z" fill="#10bb67" transform="matrix(.707 -.707 .707 .707 -197.73 218.053)"/><path d="m263.976 218.419h85v62h-85z" fill="#65bb00" transform="matrix(.707 -.707 .707 .707 -86.601 289.765)"/><path d="m143.768 338.628h85v62h-85z" fill="#02963e" transform="matrix(.707 -.707 .707 .707 -206.81 239.973)"/><path d="m324.08 158.315h85v62h-85z" fill="#febf01" transform="matrix(.707 -.707 .707 .707 -26.497 314.661)"/><path d="m203.872 278.523h85v62h-85z" fill="#2ea502" transform="matrix(.707 -.707 .707 .707 -146.705 264.869)"/><path d="m330.164 72.996-307.591 307.592c-30.024 30.024-30.024 78.871 0 108.894 30.024 30.024 78.871 30.024 108.894 0l307.591-307.591zm-151.504 326.867-66.468-66.468 38.714-38.714 66.468 66.468zm59.927-59.927-66.468-66.468 38.721-38.721 66.468 66.468zm59.934-59.934-66.468-66.468 38.714-38.714 66.468 66.468zm59.928-59.927-66.468-66.468 38.184-38.184 66.468 66.468z" fill="#f5fbff"/><path d="m439.059 181.891-307.592 307.591c-30.024 30.024-78.871 30.024-108.894 0l122.853-122.853 33.234 33.234 38.714-38.714-33.234-33.234 21.213-21.213 33.234 33.234 38.721-38.721-33.234-33.234 21.213-21.213 33.234 33.234 38.714-38.714-33.234-33.234 21.213-21.213 33.234 33.234 38.184-38.184-33.234-33.234 21.213-21.213z" fill="#cae1f9"/></g><g><path d="m15 14h124v85h-124z" fill="#8ffaff"/><path d="m15 99h124v85h-124z" fill="#50c5ff"/><path d="m15 184h124v85h-124z" fill="#455da0"/><path d="m15 269h124v85h-124z" fill="#2a4a77"/><path d="m77 99h62v85h-62z" fill="#488aff"/><path d="m77 269h62v85h-62z" fill="#15315c"/><path d="m77 14h62v85h-62z" fill="#3be2e2"/><path d="m77 184h62v85h-62z" fill="#1f4271"/><path d="m0 0v435c0 42.46 34.54 77 77 77s77-34.54 77-77v-435zm124 338.26h-94v-54.75h94zm0-84.75h-94v-54.76h94zm0-84.76h-94v-54.75h94zm0-84.75h-94v-54h94z" fill="#f5fbff"/><path d="m154 0v435c0 42.46-34.54 77-77 77v-173.74h47v-54.75h-47v-30h47v-54.76h-47v-30h47v-54.75h-47v-30h47v-54h-47v-30z" fill="#cae1f9"/></g></g></svg>