<svg width="69" height="56" viewBox="0 0 69 56" fill="none" xmlns="http://www.w3.org/2000/svg">
<path d="M9.40909 56C20.4909 48.8689 28.6455 37.5431 28.6455 17.618C28.6455 9.22846 25.3 0 14.4273 0C2.71818 0 0 9.64795 0 14.4719C0 19.0862 2.71818 28.5243 14.4273 28.5243C15.4727 28.5243 17.3545 28.3146 18.4 28.3146C17.1455 41.1086 9.40909 47.4008 4.80909 50.7566L9.40909 56ZM49.7636 56C60.8455 48.8689 69 37.5431 69 17.618C69 9.22846 65.6545 0 54.7818 0C43.0727 0 40.3545 9.64795 40.3545 14.4719C40.3545 19.0862 43.0727 28.5243 54.7818 28.5243C55.8273 28.5243 57.7091 28.3146 58.7545 28.3146C57.5 41.1086 49.7636 47.4008 45.1636 50.7566L49.7636 56Z" fill="black"/>
</svg>
