<svg width="20" height="20" viewBox="0 0 20 20" fill="none" xmlns="http://www.w3.org/2000/svg">
<g clip-path="url(#clip0)">
<path d="M19.2958 11.5775C19.8925 6.555 19.0092 3.38416 17.4158 1.94999L17.4167 1.94916C14.845 -0.50001 6.16001 -0.862511 3.08334 2.05916C1.70167 3.48833 1.21501 5.58583 1.16167 8.1825C1.10834 10.78 1.04501 15.6458 5.57917 16.9658H5.58334L5.57917 18.9817C5.57917 18.9817 5.54834 19.7983 6.07 19.9625C6.66667 20.1558 6.93667 19.7767 8.7925 17.56C11.8958 17.8292 14.2792 17.2125 14.55 17.1225C15.1767 16.9125 18.7225 16.4433 19.2958 11.5775ZM9.09834 16.1417C9.09834 16.1417 7.13417 18.5908 6.52334 19.2267C6.32334 19.4333 6.10417 19.4142 6.1075 19.0042C6.1075 18.735 6.1225 15.6575 6.1225 15.6575C2.27834 14.5558 2.50501 10.4125 2.54667 8.245C2.58834 6.07666 2.98501 4.30083 4.15501 3.10499C6.85417 0.574157 14.4683 1.13999 16.4083 2.96333C18.78 5.06583 17.9358 11.0058 17.9408 11.2083C17.4533 15.27 14.58 15.5275 14.0517 15.7033C13.8258 15.7783 11.73 16.3175 9.09834 16.1417Z" fill="#7D3DAF"/>
<path d="M9.09834 16.1417C9.09834 16.1417 7.13417 18.5908 6.52334 19.2267C6.32334 19.4333 6.10417 19.4142 6.1075 19.0042C6.1075 18.735 6.1225 15.6575 6.1225 15.6575C2.27834 14.5558 2.50501 10.4125 2.54667 8.245C2.58834 6.07666 2.98501 4.30083 4.15501 3.10499C6.85417 0.574157 14.4683 1.13999 16.4083 2.96333C18.78 5.06583 17.9358 11.0058 17.9408 11.2083C17.4533 15.27 14.58 15.5275 14.0517 15.7033C13.8258 15.7783 11.73 16.3175 9.09834 16.1417Z" fill="#7D3DAF"/>
<path d="M10.185 3.58084C9.86419 3.58084 9.86419 4.08084 10.185 4.08501C12.6742 4.10417 14.7242 5.83917 14.7467 9.02168C14.7467 9.35751 15.2384 9.35334 15.2342 9.01751H15.2334C15.2067 5.58834 12.9684 3.60001 10.185 3.58084Z" fill="white"/>
<path d="M13.4591 8.49417C13.4516 8.82583 13.9425 8.84167 13.9466 8.50583C13.9875 6.615 12.8216 5.0575 10.6308 4.89333C10.31 4.87 10.2766 5.37417 10.5966 5.3975C12.4966 5.54167 13.4975 6.83833 13.4591 8.49417Z" fill="white"/>
<path d="M12.9341 10.645C12.5225 10.4067 12.1033 10.555 11.93 10.7892L11.5675 11.2583C11.3833 11.4967 11.0391 11.465 11.0391 11.465C8.52747 10.8008 7.85581 8.17251 7.85581 8.17251C7.85581 8.17251 7.82497 7.81667 8.05497 7.62584L8.50831 7.25084C8.73497 7.07084 8.87831 6.63751 8.64747 6.21167C8.03081 5.09751 7.61664 4.71334 7.40581 4.41834C7.18414 4.14084 6.85081 4.07834 6.50414 4.26584H6.49664C5.77581 4.68751 4.98664 5.47667 5.23914 6.28917C5.66997 7.14584 6.46164 9.87667 8.98497 11.94C10.1708 12.9158 12.0475 13.9158 12.8441 14.1467L12.8516 14.1583C13.6366 14.42 14.4 13.6 14.8075 12.8575V12.8517C14.9883 12.4925 14.9283 12.1525 14.6641 11.93C14.1958 11.4733 13.4891 10.9692 12.9341 10.645Z" fill="white"/>
<path d="M10.9742 6.75333C11.775 6.79999 12.1634 7.21833 12.205 8.0775C12.22 8.41333 12.7075 8.39 12.6925 8.05416C12.6392 6.93249 12.0542 6.30749 11.0009 6.24916C10.68 6.22999 10.65 6.73416 10.9742 6.75333Z" fill="white"/>
</g>
<defs>
<clipPath id="clip0">
<rect width="20" height="20" fill="white"/>
</clipPath>
</defs>
</svg>
