<svg width="141" height="54" viewBox="0 0 141 54" fill="none" xmlns="http://www.w3.org/2000/svg">
<g clip-path="url(#clip0)">
<path d="M50.4193 15.4176C51.8073 15.4187 53.1952 15.4197 54.5745 15.4207C55.2251 15.4212 55.3207 15.1935 55.217 14.6066C54.8833 13.3284 54.1246 12.2049 53.068 11.4244C52.0115 10.6439 50.7213 10.2539 49.4137 10.3197C48.1062 10.3854 46.8608 10.903 45.8862 11.7857C44.9117 12.6684 44.2672 13.8624 44.061 15.1677C43.9489 15.9604 44.0111 16.7683 44.243 17.534C44.4748 18.2997 44.8707 19.0045 45.4027 19.5984C45.9346 20.1923 46.5894 20.6607 47.3207 20.9704C48.052 21.2801 48.8419 21.4235 49.6342 21.3904C51.6034 21.3919 53.5812 21.4546 55.5591 21.3947C56.6087 21.3517 56.322 22.0259 56.3216 22.5514C56.3212 23.077 56.607 23.7778 55.5574 23.7245C53.1719 23.6002 50.7688 23.9049 48.3922 23.5704C46.8441 23.3466 45.3947 22.6706 44.2225 21.6255C43.0503 20.5804 42.2065 19.2119 41.795 17.6886C41.4311 16.1797 41.5353 14.5944 42.0934 13.1472C42.6515 11.7001 43.6365 10.4611 44.9152 9.59793C46.1916 8.66339 47.7087 8.12205 49.2832 8.03935C50.8578 7.95666 52.4224 8.33614 53.7879 9.13193C55.1534 9.92773 56.2614 11.1058 56.9781 12.5237C57.6947 13.9417 57.9893 15.5388 57.8263 17.1222C57.8259 17.6039 57.6003 17.6914 57.1926 17.6911C53.4799 17.6883 49.7671 17.6856 46.063 17.6829C45.5338 17.6825 45.4472 17.4635 45.4302 16.9905C45.3707 15.3964 45.3534 15.3964 46.9148 15.3976L50.4193 15.4176Z" fill="#2B2927"/>
<path d="M59.2931 16.0197C59.2948 13.7074 59.2965 11.3952 59.2982 9.08293C59.2986 8.51363 59.4203 8.28598 60.0362 8.30395C61.7711 8.34901 63.506 8.30649 65.241 8.30776C66.2877 8.30797 67.3238 8.52075 68.2875 8.93339C69.2512 9.34602 70.1228 9.9501 70.8506 10.7097C71.5784 11.4693 72.1475 12.369 72.524 13.3552C72.9005 14.3413 73.0767 15.3939 73.0422 16.4502C73.0407 18.5785 73.0391 20.7156 73.0376 22.8527C73.0371 23.4483 72.9502 23.7285 72.2649 23.728C70.5299 23.7267 70.5299 23.7267 70.5312 22.0363C70.5326 20.0394 70.5341 18.0424 70.5355 16.0455C70.5483 14.6466 70.0154 13.2988 69.0519 12.2934C68.0885 11.288 66.7719 10.7059 65.3867 10.6727C64.5193 10.6283 63.5824 10.6714 62.6802 10.6707C61.9602 10.6176 61.7519 10.8277 61.76 11.5459C61.7573 15.2508 61.7026 18.9644 61.8039 22.6781C61.803 23.9393 61.144 23.6498 60.4586 23.7106C59.7733 23.7714 59.2182 23.6659 59.271 22.6237C59.3593 20.4341 59.2915 18.2269 59.2931 16.0197Z" fill="#2B2827"/>
<path d="M15.5435 20.2969C10.8418 20.2935 6.26153 20.2901 1.66394 20.2868C1.07406 20.2864 0.987482 20.0586 0.987854 19.5506C0.992211 13.5947 0.996567 7.64183 1.00092 1.69184C1.00138 1.06999 1.21834 0.956305 1.77353 0.947953C3.57786 0.949273 3.57785 0.949273 3.57657 2.70099C3.57308 7.46565 3.5696 12.2215 3.56612 16.9862C3.56559 17.7132 3.73891 17.941 4.48494 17.9328C7.53847 17.8912 10.5572 17.9372 13.6367 17.9395C14.3828 17.94 14.8859 18.0105 15.0067 18.8952C15.1319 19.3816 15.312 19.852 15.5435 20.2969Z" fill="#2B2927"/>
<path d="M33.4296 9.85227C33.4315 7.2247 33.4335 4.59713 33.4354 1.96956C33.436 1.14626 33.6704 0.901185 34.4163 1.03311C34.5885 1.06402 34.7647 1.06415 34.9368 1.03349C35.6916 0.911422 35.969 1.16562 35.9337 1.9889C35.8716 3.80188 35.931 5.62371 35.9297 7.4455C35.9292 8.15494 36.1373 8.3215 36.7965 8.32199C37.8722 8.27022 38.9479 8.32356 40.0235 8.32435C40.6741 8.32482 40.8909 8.49139 40.821 9.13947C40.7784 9.42983 40.7782 9.72491 40.8204 10.0153C40.8807 10.5759 40.655 10.7334 40.1172 10.7243C38.9374 10.7234 37.7577 10.7225 36.5779 10.7217C36.0921 10.7213 35.9098 10.8613 35.9181 11.3693C35.9166 13.5415 35.9149 15.7486 35.9134 17.8857C35.9118 20.0228 37.507 21.3903 39.9357 21.6461C41.4884 21.7961 40.6288 22.8728 40.7325 23.5122C40.8706 24.3882 40.0728 24.011 39.7085 23.9669C36.4557 23.6405 33.1612 21.0981 33.3984 16.9555C33.539 14.547 33.4279 12.1908 33.4296 9.85227Z" fill="#2A2927"/>
<path d="M18.3082 23.671L5.21807 23.6614C4.07301 23.6606 2.92796 23.6598 1.79158 23.6589C1.21037 23.6585 0.993588 23.5182 1.01139 22.9051C1.05618 20.9695 0.813027 21.346 2.52195 21.3385C6.64243 21.3415 10.7629 21.3445 14.8834 21.3475C15.2876 21.2809 15.7023 21.3322 16.0787 21.4954C16.455 21.6586 16.7775 21.9269 17.008 22.2687C17.4046 22.7696 17.8393 23.2385 18.3082 23.671Z" fill="#E01F25"/>
<path d="M24.0884 8.04118C22.5334 8.07467 21.0228 8.57176 19.7469 9.4699C18.471 10.368 17.4866 11.6271 16.9176 13.0887C16.3487 14.5503 16.2205 16.1492 16.5493 17.6841C16.8782 19.2191 17.6493 20.6215 18.7656 21.7151C19.8819 22.8086 21.2937 23.5444 22.8232 23.8298C24.3527 24.1153 25.9316 23.9376 27.3613 23.3192C28.7911 22.7008 30.0078 21.6693 30.8583 20.3545C31.7089 19.0396 32.1553 17.5002 32.1414 15.9298C32.1298 14.8767 31.9118 13.8363 31.5001 12.8687C31.0883 11.9011 30.4908 11.0254 29.7422 10.292C28.9935 9.55868 28.1086 8.98221 27.1382 8.5959C26.1678 8.20958 25.1313 8.02106 24.0884 8.04118ZM24.0785 21.6257C23.3412 21.6298 22.6104 21.4865 21.9282 21.204C21.2461 20.9216 20.6261 20.5056 20.1039 19.9801C19.5817 19.4546 19.1677 18.8298 18.8858 18.142C18.6039 17.4541 18.4597 16.7167 18.4614 15.9723C18.4534 15.2279 18.5946 14.4896 18.8762 13.8016C19.1579 13.1137 19.5742 12.4902 20.1004 11.9688C20.6266 11.4473 21.2516 11.0385 21.9381 10.7669C22.6246 10.4954 23.3584 10.3666 24.0954 10.3885C24.8447 10.3591 25.5921 10.4829 26.2929 10.7523C26.9936 11.0217 27.6333 11.4313 28.1735 11.9563C28.7137 12.4814 29.1433 13.1112 29.4366 13.808C29.7299 14.5048 29.8807 15.2542 29.8801 16.0113C29.8796 16.7684 29.7276 17.5176 29.4334 18.214C29.1391 18.9104 28.7085 19.5395 28.1675 20.0638C27.6266 20.5881 26.9863 20.9967 26.2852 21.2651C25.584 21.5335 24.8364 21.6561 24.0872 21.6257L24.0785 21.6257Z" fill="#2A2927"/>
</g>
<path d="M4.05676 33.8838L4.05676 34.7285L6.7179 34.7285C6.68209 35.5326 6.45911 36.1673 6.04895 36.6328C5.63879 37.0951 5.11308 37.3262 4.4718 37.3262C3.33248 37.3262 2.61796 36.7207 2.32825 35.5098L1.41516 35.749C1.82857 37.3311 2.82467 38.1221 4.40344 38.1221C5.533 38.1221 6.37284 37.7591 6.92297 37.0332C7.47636 36.304 7.73515 35.4072 7.69934 34.3428C7.69934 33.6917 7.57564 33.0977 7.32825 32.5605C7.08411 32.0234 6.70813 31.5824 6.20032 31.2373C5.6925 30.8923 5.08704 30.7197 4.38391 30.7197C3.64172 30.7197 3.01998 30.9036 2.51868 31.2715C2.02063 31.6393 1.68372 32.1504 1.50793 32.8047L2.43567 33.0488C2.70585 32.0495 3.35689 31.5498 4.38879 31.5498C5.08541 31.5498 5.63066 31.7598 6.02454 32.1797C6.42167 32.5996 6.63977 33.1676 6.67883 33.8838L4.05676 33.8838Z" fill="black"/>
<path d="M8.84192 32.8145L9.72083 32.8145L9.72083 35.0557C10.0008 35.0557 10.1961 35.002 10.3068 34.8945C10.4207 34.7871 10.5867 34.4746 10.8048 33.957C10.9773 33.5469 11.1173 33.2767 11.2247 33.1465C11.3322 33.0163 11.4559 32.9284 11.5958 32.8828C11.7358 32.8372 11.9604 32.8145 12.2697 32.8145L12.4454 32.8145L12.4454 33.542L12.2013 33.5371C11.9702 33.5371 11.8221 33.5713 11.757 33.6396C11.6886 33.7113 11.5844 33.9245 11.4445 34.2793C11.311 34.6178 11.1889 34.8522 11.0782 34.9824C10.9676 35.1126 10.7967 35.2314 10.5656 35.3389C10.9432 35.4398 11.3142 35.7913 11.6788 36.3936L12.6407 38L11.674 38L10.7365 36.3936C10.5444 36.0713 10.3767 35.8597 10.2335 35.7588C10.0903 35.6546 9.91939 35.6025 9.72083 35.6025L9.72083 38L8.84192 38L8.84192 32.8145Z" fill="black"/>
<path d="M16.7228 36.1006L17.587 36.2129C17.4926 36.8086 17.2501 37.2757 16.8595 37.6143C16.4721 37.9495 15.9952 38.1172 15.4288 38.1172C14.7192 38.1172 14.1479 37.8861 13.715 37.4238C13.2853 36.9583 13.0704 36.2926 13.0704 35.4268C13.0704 34.8669 13.1632 34.377 13.3488 33.957C13.5343 33.5371 13.8159 33.223 14.1935 33.0146C14.5743 32.8031 14.9878 32.6973 15.4337 32.6973C15.9969 32.6973 16.4575 32.8405 16.8156 33.127C17.1736 33.4102 17.4031 33.8138 17.504 34.3379L16.6495 34.4697C16.5682 34.1214 16.4233 33.8594 16.215 33.6836C16.0099 33.5078 15.7609 33.4199 15.4679 33.4199C15.0252 33.4199 14.6655 33.5794 14.3888 33.8984C14.1121 34.2142 13.9738 34.7155 13.9738 35.4023C13.9738 36.099 14.1072 36.6051 14.3741 36.9209C14.6411 37.2367 14.9894 37.3945 15.4191 37.3945C15.7641 37.3945 16.0522 37.2887 16.2833 37.0771C16.5144 36.8656 16.6609 36.54 16.7228 36.1006Z" fill="black"/>
<path d="M18.3341 32.8145L19.213 32.8145L19.213 35.0557C19.493 35.0557 19.6883 35.002 19.799 34.8945C19.9129 34.7871 20.0789 34.4746 20.297 33.957C20.4695 33.5469 20.6095 33.2767 20.7169 33.1465C20.8243 33.0163 20.948 32.9284 21.088 32.8828C21.228 32.8372 21.4526 32.8145 21.7618 32.8145L21.9376 32.8145L21.9376 33.542L21.6935 33.5371C21.4624 33.5371 21.3142 33.5713 21.2491 33.6396C21.1808 33.7113 21.0766 33.9245 20.9366 34.2793C20.8032 34.6178 20.6811 34.8522 20.5704 34.9824C20.4598 35.1126 20.2889 35.2314 20.0577 35.3389C20.4353 35.4398 20.8064 35.7913 21.171 36.3936L22.1329 38L21.1661 38L20.2286 36.3936C20.0366 36.0713 19.8689 35.8597 19.7257 35.7588C19.5825 35.6546 19.4116 35.6025 19.213 35.6025L19.213 38L18.3341 38L18.3341 32.8145Z" fill="black"/>
<path d="M23.2609 32.8145L27.3429 32.8145L27.3429 38L26.4689 38L26.4689 33.542L24.1398 33.542L24.1398 36.125C24.1398 36.7272 24.1202 37.1243 24.0812 37.3164C24.0421 37.5085 23.9347 37.6761 23.7589 37.8193C23.5831 37.9626 23.3292 38.0342 22.9972 38.0342C22.7921 38.0342 22.5561 38.0212 22.2892 37.9951L22.2892 37.2627L22.6749 37.2627C22.8572 37.2627 22.9874 37.2448 23.0656 37.209C23.1437 37.1699 23.1958 37.1097 23.2218 37.0283C23.2478 36.9469 23.2609 36.6816 23.2609 36.2324L23.2609 32.8145Z" fill="black"/>
<path d="M28.6808 32.8145L29.5597 32.8145L29.5597 34.9824L30.6241 34.9824C30.7023 34.2402 30.9334 33.6738 31.3175 33.2832C31.7049 32.8926 32.2062 32.6973 32.8214 32.6973C33.3455 32.6973 33.7589 32.8031 34.0616 33.0146C34.3644 33.2262 34.6134 33.5176 34.8087 33.8887C35.0073 34.2598 35.1066 34.7594 35.1066 35.3877C35.1066 36.2829 34.9031 36.9616 34.4962 37.4238C34.0893 37.8861 33.5376 38.1172 32.8409 38.1172C32.1932 38.1172 31.674 37.9023 31.2833 37.4727C30.8927 37.043 30.673 36.4538 30.6241 35.7051L29.5597 35.7051L29.5597 38L28.6808 38L28.6808 32.8145ZM32.8702 33.4443C32.4406 33.4443 32.1053 33.6104 31.8644 33.9424C31.6267 34.2712 31.5079 34.7334 31.5079 35.3291C31.5079 36.042 31.6284 36.5645 31.8693 36.8965C32.1101 37.2285 32.4324 37.3945 32.8361 37.3945C33.2365 37.3945 33.5636 37.2415 33.8175 36.9355C34.0747 36.6263 34.2032 36.1299 34.2032 35.4463C34.2032 34.779 34.0926 34.2793 33.8712 33.9473C33.6499 33.612 33.3162 33.4443 32.8702 33.4443Z" fill="black"/>
<path d="M37.3185 35.6563L37.3185 34.9678C37.6896 34.9645 37.9419 34.9499 38.0753 34.9238C38.212 34.8978 38.3406 34.8197 38.4611 34.6895C38.5815 34.5592 38.6417 34.3965 38.6417 34.2012C38.6417 33.9635 38.562 33.7747 38.4025 33.6348C38.2462 33.4915 38.0428 33.4199 37.7921 33.4199C37.2973 33.4199 36.9506 33.7113 36.7521 34.2939L35.9171 34.1572C36.1775 33.1839 36.8058 32.6973 37.8019 32.6973C38.3553 32.6973 38.7882 32.8486 39.1007 33.1514C39.4165 33.4541 39.5743 33.8154 39.5743 34.2354C39.5743 34.6585 39.3693 34.9954 38.9591 35.2461C39.2195 35.3861 39.4148 35.5651 39.545 35.7832C39.6753 35.998 39.7404 36.2536 39.7404 36.5498C39.7404 37.0153 39.5711 37.3929 39.2325 37.6826C38.894 37.9723 38.4204 38.1172 37.8116 38.1172C36.63 38.1172 35.9448 37.5915 35.756 36.54L36.5812 36.3643C36.656 36.6963 36.8074 36.9535 37.0353 37.1357C37.2664 37.318 37.5301 37.4092 37.8263 37.4092C38.1225 37.4092 38.3683 37.3262 38.5636 37.1602C38.7622 36.9909 38.8615 36.776 38.8615 36.5156C38.8615 36.3138 38.7996 36.138 38.6759 35.9883C38.5522 35.8385 38.4204 35.7458 38.2804 35.71C38.1404 35.6709 37.8865 35.6514 37.5187 35.6514C37.4894 35.6514 37.4226 35.653 37.3185 35.6563Z" fill="black"/>
<path d="M40.7609 32.8145L41.6398 32.8145L41.6398 36.7695L44.0763 32.8145L45.0236 32.8145L45.0236 38L44.1447 38L44.1447 34.0693L41.7081 38L40.7609 38L40.7609 32.8145Z" fill="black"/>
<path d="M46.3517 32.8145L48.3781 32.8145C48.8761 32.8145 49.2456 32.8568 49.4865 32.9414C49.7306 33.0228 49.9389 33.1742 50.1115 33.3955C50.2872 33.6169 50.3751 33.8822 50.3751 34.1914C50.3751 34.4388 50.323 34.6553 50.2189 34.8408C50.118 35.0231 49.965 35.1761 49.7599 35.2998C50.004 35.3812 50.2059 35.5342 50.3654 35.7588C50.5281 35.9801 50.6095 36.2438 50.6095 36.5498C50.5769 37.0413 50.4012 37.4059 50.0822 37.6436C49.7631 37.8812 49.2993 38 48.6906 38L46.3517 38L46.3517 32.8145ZM47.2306 34.9971L48.1681 34.9971C48.5424 34.9971 48.7996 34.9775 48.9396 34.9385C49.0795 34.8994 49.2049 34.8213 49.3156 34.7041C49.4262 34.5837 49.4816 34.4404 49.4816 34.2744C49.4816 34.001 49.3839 33.8105 49.1886 33.7031C48.9965 33.5957 48.6661 33.542 48.1974 33.542L47.2306 33.542L47.2306 34.9971ZM47.2306 37.2773L48.3878 37.2773C48.8859 37.2773 49.2277 37.2204 49.4132 37.1064C49.5988 36.9893 49.6964 36.7891 49.7062 36.5059C49.7062 36.3398 49.6525 36.1868 49.545 36.0469C49.4376 35.9036 49.2976 35.8141 49.1251 35.7783C48.9526 35.7393 48.6759 35.7197 48.295 35.7197L47.2306 35.7197L47.2306 37.2773Z" fill="black"/>
<path d="M51.6642 32.8145L52.5431 32.8145L52.5431 34.9727L54.9796 34.9727L54.9796 32.8145L55.8585 32.8145L55.8585 38L54.9796 38L54.9796 35.7002L52.5431 35.7002L52.5431 38L51.6642 38L51.6642 32.8145Z" fill="black"/>
<path d="M62.1232 32.8145L63.0021 32.8145L63.0021 38L62.1232 38L62.1232 32.8145ZM57.2062 32.8145L58.0851 32.8145L58.0851 34.8408L59.1984 34.8408C59.9243 34.8408 60.4825 34.9824 60.8732 35.2656C61.267 35.5456 61.464 35.9329 61.464 36.4277C61.464 36.8607 61.2996 37.2318 60.9708 37.541C60.6453 37.847 60.1228 38 59.4034 38L57.2062 38L57.2062 32.8145ZM58.0851 37.2773L59.0079 37.2773C59.5646 37.2773 59.9617 37.209 60.1993 37.0723C60.437 36.9355 60.5558 36.7223 60.5558 36.4326C60.5558 36.208 60.4679 36.0078 60.2921 35.832C60.1163 35.6563 59.7273 35.5684 59.1251 35.5684L58.0851 35.5684L58.0851 37.2773Z" fill="black"/>
<path d="M64.3741 32.8145L65.2531 32.8145L65.2531 36.7695L67.6896 32.8145L68.6368 32.8145L68.6368 38L67.7579 38L67.7579 34.0693L65.3214 38L64.3741 38L64.3741 32.8145ZM67.4259 30.8516L68.0265 30.8516C67.9777 31.2585 67.8279 31.571 67.5773 31.7891C67.3299 32.0072 66.9995 32.1162 66.5861 32.1162C66.1694 32.1162 65.8357 32.0088 65.5851 31.7939C65.3377 31.5758 65.1896 31.2617 65.1407 30.8516L65.7413 30.8516C65.7869 31.0729 65.8764 31.2389 66.0099 31.3496C66.1466 31.457 66.3289 31.5107 66.5568 31.5107C66.8204 31.5107 67.019 31.4587 67.1525 31.3545C67.2892 31.2471 67.3803 31.0794 67.4259 30.8516Z" fill="black"/>
<path d="M72.7482 32.8145L76.84 32.8145L76.84 38L75.9611 38L75.9611 33.542L73.6271 33.542L73.6271 38L72.7482 38L72.7482 32.8145Z" fill="black"/>
<path d="M78.1632 39.9873L78.1632 32.8145L78.964 32.8145L78.964 33.4883C79.1528 33.2246 79.366 33.0277 79.6036 32.8975C79.8413 32.764 80.1294 32.6973 80.4679 32.6973C80.9106 32.6973 81.3012 32.8112 81.6398 33.0391C81.9783 33.2669 82.2338 33.5892 82.4064 34.0059C82.5789 34.4193 82.6652 34.8734 82.6652 35.3682C82.6652 35.8988 82.5691 36.3773 82.3771 36.8037C82.1883 37.2269 81.9116 37.5524 81.547 37.7803C81.1857 38.0049 80.8048 38.1172 80.4044 38.1172C80.1115 38.1172 79.8478 38.0553 79.6134 37.9316C79.3823 37.8079 79.1919 37.6517 79.0421 37.4629L79.0421 39.9873L78.1632 39.9873ZM78.9591 35.4365C78.9591 36.1038 79.0942 36.597 79.3644 36.916C79.6346 37.235 79.9617 37.3945 80.3458 37.3945C80.7365 37.3945 81.0701 37.2301 81.3468 36.9014C81.6267 36.5693 81.7667 36.0566 81.7667 35.3633C81.7667 34.7025 81.63 34.2077 81.3566 33.8789C81.0864 33.5501 80.7625 33.3857 80.3849 33.3857C80.0105 33.3857 79.6785 33.5615 79.3888 33.9131C79.1023 34.2614 78.9591 34.7692 78.9591 35.4365Z" fill="black"/>
<path d="M87.2794 36.3301L88.1876 36.4424C88.0444 36.973 87.7791 37.3848 87.3917 37.6777C87.0044 37.9707 86.5096 38.1172 85.9073 38.1172C85.1489 38.1172 84.5467 37.8844 84.1007 37.4189C83.658 36.9502 83.4366 36.2943 83.4366 35.4512C83.4366 34.5788 83.6613 33.9017 84.1105 33.4199C84.5597 32.9382 85.1424 32.6973 85.8585 32.6973C86.5519 32.6973 87.1183 32.9333 87.5577 33.4053C87.9972 33.8773 88.2169 34.5413 88.2169 35.3975C88.2169 35.4495 88.2153 35.5277 88.212 35.6318L84.3448 35.6318C84.3774 36.2015 84.5385 36.6377 84.8282 36.9404C85.118 37.2432 85.4793 37.3945 85.9122 37.3945C86.2345 37.3945 86.5096 37.3099 86.7374 37.1406C86.9653 36.9714 87.146 36.7012 87.2794 36.3301ZM84.3937 34.9092L87.2892 34.9092C87.2501 34.473 87.1394 34.1458 86.9572 33.9277C86.6772 33.5892 86.3142 33.4199 85.8683 33.4199C85.4646 33.4199 85.1245 33.555 84.8478 33.8252C84.5743 34.0954 84.423 34.4567 84.3937 34.9092Z" fill="black"/>
<path d="M89.7648 32.8145L93.3781 32.8145L93.3781 37.2773L93.9396 37.2773L93.9396 39.4697L93.2169 39.4697L93.2169 38L89.1349 38L89.1349 39.4697L88.4122 39.4697L88.4122 37.2773L88.8761 37.2773C89.4946 36.4375 89.7908 34.9499 89.7648 32.8145ZM90.4972 33.542C90.4321 35.2249 90.1717 36.4701 89.7159 37.2773L92.504 37.2773L92.504 33.542L90.4972 33.542Z" fill="black"/>
<path d="M98.295 36.1006L99.1593 36.2129C99.0649 36.8086 98.8224 37.2757 98.4318 37.6143C98.0444 37.9495 97.5675 38.1172 97.0011 38.1172C96.2915 38.1172 95.7202 37.8861 95.2872 37.4238C94.8575 36.9583 94.6427 36.2926 94.6427 35.4268C94.6427 34.8669 94.7355 34.377 94.921 33.957C95.1066 33.5371 95.3881 33.223 95.7657 33.0146C96.1466 32.8031 96.56 32.6973 97.006 32.6973C97.5691 32.6973 98.0297 32.8405 98.3878 33.127C98.7459 33.4102 98.9754 33.8138 99.0763 34.3379L98.2218 34.4697C98.1404 34.1214 97.9956 33.8594 97.7872 33.6836C97.5822 33.5078 97.3331 33.4199 97.0402 33.4199C96.5975 33.4199 96.2378 33.5794 95.9611 33.8984C95.6844 34.2142 95.546 34.7155 95.546 35.4023C95.546 36.099 95.6795 36.6051 95.9464 36.9209C96.2133 37.2367 96.5616 37.3945 96.9913 37.3945C97.3364 37.3945 97.6245 37.2887 97.8556 37.0771C98.0867 36.8656 98.2332 36.54 98.295 36.1006Z" fill="black"/>
<path d="M99.4376 32.8145L103.651 32.8145L103.651 33.542L101.982 33.542L101.982 38L101.108 38L101.108 33.542L99.4376 33.542L99.4376 32.8145Z" fill="black"/>
<path d="M107.758 37.3604C107.432 37.637 107.118 37.8324 106.816 37.9463C106.516 38.0602 106.194 38.1172 105.849 38.1172C105.279 38.1172 104.841 37.9788 104.535 37.7021C104.229 37.4222 104.076 37.0658 104.076 36.6328C104.076 36.3789 104.133 36.1478 104.247 35.9395C104.364 35.7279 104.516 35.5586 104.701 35.4316C104.89 35.3047 105.102 35.2087 105.336 35.1436C105.509 35.098 105.769 35.054 106.117 35.0117C106.827 34.9271 107.349 34.8262 107.685 34.709C107.688 34.5885 107.69 34.512 107.69 34.4795C107.69 34.1214 107.607 33.8691 107.441 33.7227C107.216 33.5241 106.882 33.4248 106.44 33.4248C106.026 33.4248 105.72 33.498 105.522 33.6445C105.326 33.7878 105.181 34.0433 105.087 34.4111L104.228 34.2939C104.306 33.9261 104.434 33.6299 104.613 33.4053C104.792 33.1774 105.051 33.0033 105.39 32.8828C105.728 32.7591 106.121 32.6973 106.567 32.6973C107.009 32.6973 107.369 32.7493 107.646 32.8535C107.922 32.9577 108.126 33.0895 108.256 33.249C108.386 33.4053 108.477 33.6038 108.529 33.8447C108.559 33.9945 108.573 34.2646 108.573 34.6553L108.573 35.8271C108.573 36.6442 108.591 37.1618 108.627 37.3799C108.666 37.5947 108.741 37.8014 108.852 38L107.934 38C107.843 37.8177 107.784 37.6045 107.758 37.3604ZM107.685 35.3975C107.366 35.5277 106.887 35.6383 106.249 35.7295C105.888 35.7816 105.632 35.8402 105.483 35.9053C105.333 35.9704 105.217 36.0664 105.136 36.1934C105.054 36.3171 105.014 36.4554 105.014 36.6084C105.014 36.8428 105.102 37.0381 105.277 37.1943C105.457 37.3506 105.717 37.4287 106.059 37.4287C106.397 37.4287 106.698 37.3555 106.962 37.209C107.226 37.0592 107.419 36.8558 107.543 36.5986C107.637 36.4001 107.685 36.1071 107.685 35.7197L107.685 35.3975Z" fill="black"/>
<path d="M109.945 32.8145L111.972 32.8145C112.47 32.8145 112.839 32.8568 113.08 32.9414C113.324 33.0228 113.533 33.1742 113.705 33.3955C113.881 33.6169 113.969 33.8822 113.969 34.1914C113.969 34.4388 113.917 34.6553 113.813 34.8408C113.712 35.0231 113.559 35.1761 113.354 35.2998C113.598 35.3812 113.8 35.5342 113.959 35.7588C114.122 35.9801 114.203 36.2438 114.203 36.5498C114.171 37.0413 113.995 37.4059 113.676 37.6436C113.357 37.8812 112.893 38 112.284 38L109.945 38L109.945 32.8145ZM110.824 34.9971L111.762 34.9971C112.136 34.9971 112.393 34.9775 112.533 34.9385C112.673 34.8994 112.799 34.8213 112.909 34.7041C113.02 34.5837 113.075 34.4404 113.075 34.2744C113.075 34.001 112.978 33.8105 112.782 33.7031C112.59 33.5957 112.26 33.542 111.791 33.542L110.824 33.542L110.824 34.9971ZM110.824 37.2773L111.982 37.2773C112.48 37.2773 112.821 37.2204 113.007 37.1064C113.193 36.9893 113.29 36.7891 113.3 36.5059C113.3 36.3398 113.246 36.1868 113.139 36.0469C113.031 35.9036 112.891 35.8141 112.719 35.7783C112.546 35.7393 112.27 35.7197 111.889 35.7197L110.824 35.7197L110.824 37.2773Z" fill="black"/>
<path d="M115.253 32.8145L116.132 32.8145L116.132 36.7695L118.568 32.8145L119.516 32.8145L119.516 38L118.637 38L118.637 34.0693L116.2 38L115.253 38L115.253 32.8145Z" fill="black"/>
<path d="M120.365 32.8145L124.579 32.8145L124.579 33.542L122.909 33.542L122.909 38L122.035 38L122.035 33.542L120.365 33.542L120.365 32.8145Z" fill="black"/>
<path d="M128.852 36.3301L129.76 36.4424C129.617 36.973 129.351 37.3848 128.964 37.6777C128.577 37.9707 128.082 38.1172 127.48 38.1172C126.721 38.1172 126.119 37.8844 125.673 37.4189C125.23 36.9502 125.009 36.2943 125.009 35.4512C125.009 34.5788 125.234 33.9017 125.683 33.4199C126.132 32.9382 126.715 32.6973 127.431 32.6973C128.124 32.6973 128.691 32.9333 129.13 33.4053C129.569 33.8773 129.789 34.5413 129.789 35.3975C129.789 35.4495 129.788 35.5277 129.784 35.6318L125.917 35.6318C125.95 36.2015 126.111 36.6377 126.401 36.9404C126.69 37.2432 127.052 37.3945 127.484 37.3945C127.807 37.3945 128.082 37.3099 128.31 37.1406C128.538 36.9714 128.718 36.7012 128.852 36.3301ZM125.966 34.9092L128.861 34.9092C128.822 34.473 128.712 34.1458 128.529 33.9277C128.249 33.5892 127.887 33.4199 127.441 33.4199C127.037 33.4199 126.697 33.555 126.42 33.8252C126.147 34.0954 125.995 34.4567 125.966 34.9092Z" fill="black"/>
<path d="M130.966 32.8145L135.048 32.8145L135.048 38L134.174 38L134.174 33.542L131.845 33.542L131.845 36.125C131.845 36.7272 131.825 37.1243 131.786 37.3164C131.747 37.5085 131.64 37.6761 131.464 37.8193C131.288 37.9626 131.034 38.0342 130.702 38.0342C130.497 38.0342 130.261 38.0212 129.994 37.9951L129.994 37.2627L130.38 37.2627C130.562 37.2627 130.693 37.2448 130.771 37.209C130.849 37.1699 130.901 37.1097 130.927 37.0283C130.953 36.9469 130.966 36.6816 130.966 36.2324L130.966 32.8145Z" fill="black"/>
<path d="M136.361 32.8145L137.24 32.8145L137.24 34.8408L138.354 34.8408C139.08 34.8408 139.638 34.9824 140.028 35.2656C140.422 35.5456 140.619 35.9329 140.619 36.4277C140.619 36.8607 140.455 37.2318 140.126 37.541C139.801 37.847 139.278 38 138.559 38L136.361 38L136.361 32.8145ZM137.24 37.2773L138.163 37.2773C138.72 37.2773 139.117 37.209 139.355 37.0723C139.592 36.9355 139.711 36.7223 139.711 36.4326C139.711 36.208 139.623 36.0078 139.447 35.832C139.272 35.6563 138.883 35.5684 138.28 35.5684L137.24 35.5684L137.24 37.2773Z" fill="black"/>
<path d="M1.6593 52.9873L1.6593 45.8145L2.46008 45.8145L2.46008 46.4883C2.64889 46.2246 2.8621 46.0277 3.09973 45.8975C3.33736 45.764 3.62545 45.6973 3.96399 45.6973C4.4067 45.6973 4.79732 45.8112 5.13586 46.0391C5.47441 46.2669 5.72994 46.5892 5.90247 47.0059C6.07499 47.4193 6.16125 47.8734 6.16125 48.3682C6.16125 48.8988 6.06523 49.3773 5.87317 49.8037C5.68437 50.2269 5.40767 50.5524 5.04309 50.7803C4.68176 51.0049 4.3009 51.1172 3.90051 51.1172C3.60754 51.1172 3.34387 51.0553 3.1095 50.9316C2.87838 50.8079 2.68795 50.6517 2.53821 50.4629L2.53821 52.9873L1.6593 52.9873ZM2.4552 48.4365C2.4552 49.1038 2.59029 49.597 2.86047 49.916C3.13066 50.235 3.4578 50.3945 3.84192 50.3945C4.23254 50.3945 4.5662 50.2301 4.8429 49.9014C5.12284 49.5693 5.26282 49.0566 5.26282 48.3633C5.26282 47.7025 5.1261 47.2077 4.85266 46.8789C4.58248 46.5501 4.25859 46.3857 3.88098 46.3857C3.50663 46.3857 3.1746 46.5615 2.88489 46.9131C2.59843 47.2614 2.4552 47.7692 2.4552 48.4365Z" fill="black"/>
<path d="M10.6095 50.3604C10.284 50.637 9.96985 50.8324 9.66711 50.9463C9.36764 51.0602 9.04537 51.1172 8.70032 51.1172C8.13066 51.1172 7.69283 50.9788 7.38684 50.7021C7.08085 50.4222 6.92786 50.0658 6.92786 49.6328C6.92786 49.3789 6.98482 49.1478 7.09875 48.9395C7.21594 48.7279 7.36731 48.5586 7.55286 48.4316C7.74166 48.3047 7.95325 48.2087 8.18762 48.1436C8.36015 48.098 8.62056 48.054 8.96887 48.0117C9.67851 47.9271 10.201 47.8262 10.5363 47.709C10.5395 47.5885 10.5411 47.512 10.5411 47.4795C10.5411 47.1214 10.4581 46.8691 10.2921 46.7227C10.0675 46.5241 9.73385 46.4248 9.29114 46.4248C8.87773 46.4248 8.57174 46.498 8.37317 46.6445C8.17786 46.7878 8.033 47.0433 7.9386 47.4111L7.07922 47.2939C7.15735 46.9261 7.28593 46.6299 7.46497 46.4053C7.644 46.1774 7.90279 46.0033 8.24133 45.8828C8.57987 45.7591 8.97213 45.6973 9.41809 45.6973C9.8608 45.6973 10.2205 45.7493 10.4972 45.8535C10.7739 45.9577 10.9773 46.0895 11.1075 46.249C11.2378 46.4053 11.3289 46.6038 11.381 46.8447C11.4103 46.9945 11.4249 47.2646 11.4249 47.6553L11.4249 48.8271C11.4249 49.6442 11.4428 50.1618 11.4786 50.3799C11.5177 50.5947 11.5926 50.8014 11.7032 51L10.7853 51C10.6941 50.8177 10.6355 50.6045 10.6095 50.3604ZM10.5363 48.3975C10.2172 48.5277 9.73873 48.6383 9.10071 48.7295C8.73938 48.7816 8.48385 48.8402 8.33411 48.9053C8.18437 48.9704 8.06881 49.0664 7.98743 49.1934C7.90605 49.3171 7.86536 49.4554 7.86536 49.6084C7.86536 49.8428 7.95325 50.0381 8.12903 50.1943C8.30806 50.3506 8.56848 50.4287 8.91028 50.4287C9.24882 50.4287 9.54993 50.3555 9.8136 50.209C10.0773 50.0592 10.271 49.8558 10.3947 49.5986C10.4891 49.4001 10.5363 49.1071 10.5363 48.7197L10.5363 48.3975Z" fill="black"/>
<path d="M13.4855 45.8145L17.0988 45.8145L17.0988 50.2773L17.6603 50.2773L17.6603 52.4697L16.9376 52.4697L16.9376 51L12.8556 51L12.8556 52.4697L12.1329 52.4697L12.1329 50.2773L12.5968 50.2773C13.2153 49.4375 13.5115 47.9499 13.4855 45.8145ZM14.2179 46.542C14.1528 48.2249 13.8924 49.4701 13.4366 50.2773L16.2247 50.2773L16.2247 46.542L14.2179 46.542Z" fill="black"/>
<path d="M18.632 45.8145L19.5109 45.8145L19.5109 49.7695L21.9474 45.8145L22.8947 45.8145L22.8947 51L22.0157 51L22.0157 47.0693L19.5792 51L18.632 51L18.632 45.8145Z" fill="black"/>
<path d="M27.6017 50.3604C27.2762 50.637 26.962 50.8324 26.6593 50.9463C26.3598 51.0602 26.0376 51.1172 25.6925 51.1172C25.1228 51.1172 24.685 50.9788 24.379 50.7021C24.073 50.4222 23.92 50.0658 23.92 49.6328C23.92 49.3789 23.977 49.1478 24.0909 48.9395C24.2081 48.7279 24.3595 48.5586 24.545 48.4316C24.7338 48.3047 24.9454 48.2087 25.1798 48.1436C25.3523 48.098 25.6128 48.054 25.9611 48.0117C26.6707 47.9271 27.1932 47.8262 27.5284 47.709C27.5317 47.5885 27.5333 47.512 27.5333 47.4795C27.5333 47.1214 27.4503 46.8691 27.2843 46.7227C27.0597 46.5241 26.726 46.4248 26.2833 46.4248C25.8699 46.4248 25.5639 46.498 25.3654 46.6445C25.17 46.7878 25.0252 47.0433 24.9308 47.4111L24.0714 47.2939C24.1495 46.9261 24.2781 46.6299 24.4572 46.4053C24.6362 46.1774 24.895 46.0033 25.2335 45.8828C25.5721 45.7591 25.9643 45.6973 26.4103 45.6973C26.853 45.6973 27.2127 45.7493 27.4894 45.8535C27.7661 45.9577 27.9695 46.0895 28.0997 46.249C28.2299 46.4053 28.3211 46.6038 28.3732 46.8447C28.4025 46.9945 28.4171 47.2646 28.4171 47.6553L28.4171 48.8271C28.4171 49.6442 28.435 50.1618 28.4708 50.3799C28.5099 50.5947 28.5848 50.8014 28.6954 51L27.7775 51C27.6863 50.8177 27.6277 50.6045 27.6017 50.3604ZM27.5284 48.3975C27.2094 48.5277 26.7309 48.6383 26.0929 48.7295C25.7316 48.7816 25.476 48.8402 25.3263 48.9053C25.1766 48.9704 25.061 49.0664 24.9796 49.1934C24.8982 49.3171 24.8575 49.4554 24.8575 49.6084C24.8575 49.8428 24.9454 50.0381 25.1212 50.1943C25.3003 50.3506 25.5607 50.4287 25.9025 50.4287C26.241 50.4287 26.5421 50.3555 26.8058 50.209C27.0695 50.0592 27.2631 49.8558 27.3868 49.5986C27.4812 49.4001 27.5284 49.1071 27.5284 48.7197L27.5284 48.3975Z" fill="black"/>
<path d="M29.0861 45.8145L33.2999 45.8145L33.2999 46.542L31.63 46.542L31.63 51L30.756 51L30.756 46.542L29.0861 46.542L29.0861 45.8145Z" fill="black"/>
<path d="M33.6954 48.4072C33.6954 47.4469 33.9624 46.7357 34.4962 46.2734C34.9422 45.8893 35.4858 45.6973 36.1271 45.6973C36.84 45.6973 37.4226 45.9316 37.8751 46.4004C38.3276 46.8659 38.5538 47.5104 38.5538 48.334C38.5538 49.0013 38.4529 49.527 38.2511 49.9111C38.0525 50.292 37.7612 50.5882 37.3771 50.7998C36.9962 51.0114 36.5795 51.1172 36.1271 51.1172C35.4012 51.1172 34.8136 50.8844 34.3644 50.4189C33.9184 49.9535 33.6954 49.2829 33.6954 48.4072ZM34.5988 48.4072C34.5988 49.0713 34.7436 49.5693 35.0333 49.9014C35.323 50.2301 35.6876 50.3945 36.1271 50.3945C36.5633 50.3945 36.9262 50.2285 37.2159 49.8965C37.5057 49.5645 37.6505 49.0583 37.6505 48.3779C37.6505 47.7367 37.504 47.2516 37.2111 46.9229C36.9213 46.5908 36.56 46.4248 36.1271 46.4248C35.6876 46.4248 35.323 46.5892 35.0333 46.918C34.7436 47.2467 34.5988 47.7432 34.5988 48.4072Z" fill="black"/>
<path d="M39.589 52.9873L39.589 45.8145L40.3898 45.8145L40.3898 46.4883C40.5786 46.2246 40.7918 46.0277 41.0294 45.8975C41.267 45.764 41.5551 45.6973 41.8937 45.6973C42.3364 45.6973 42.727 45.8112 43.0656 46.0391C43.4041 46.2669 43.6596 46.5892 43.8322 47.0059C44.0047 47.4193 44.0909 47.8734 44.0909 48.3682C44.0909 48.8988 43.9949 49.3773 43.8029 49.8037C43.6141 50.2269 43.3374 50.5524 42.9728 50.7803C42.6115 51.0049 42.2306 51.1172 41.8302 51.1172C41.5372 51.1172 41.2736 51.0553 41.0392 50.9316C40.8081 50.8079 40.6176 50.6517 40.4679 50.4629L40.4679 52.9873L39.589 52.9873ZM40.3849 48.4365C40.3849 49.1038 40.52 49.597 40.7902 49.916C41.0603 50.235 41.3875 50.3945 41.7716 50.3945C42.1622 50.3945 42.4959 50.2301 42.7726 49.9014C43.0525 49.5693 43.1925 49.0566 43.1925 48.3633C43.1925 47.7025 43.0558 47.2077 42.7823 46.8789C42.5122 46.5501 42.1883 46.3857 41.8107 46.3857C41.4363 46.3857 41.1043 46.5615 40.8146 46.9131C40.5281 47.2614 40.3849 47.7692 40.3849 48.4365Z" fill="black"/>
<path d="M44.8282 48.4072C44.8282 47.4469 45.0952 46.7357 45.629 46.2734C46.075 45.8893 46.6186 45.6973 47.2599 45.6973C47.9728 45.6973 48.5555 45.9316 49.0079 46.4004C49.4604 46.8659 49.6866 47.5104 49.6866 48.334C49.6866 49.0013 49.5857 49.527 49.3839 49.9111C49.1853 50.292 48.894 50.5882 48.5099 50.7998C48.129 51.0114 47.7124 51.1172 47.2599 51.1172C46.534 51.1172 45.9464 50.8844 45.4972 50.4189C45.0512 49.9535 44.8282 49.2829 44.8282 48.4072ZM45.7316 48.4072C45.7316 49.0713 45.8764 49.5693 46.1661 49.9014C46.4559 50.2301 46.8204 50.3945 47.2599 50.3945C47.6961 50.3945 48.059 50.2285 48.3488 49.8965C48.6385 49.5645 48.7833 49.0583 48.7833 48.3779C48.7833 47.7367 48.6368 47.2516 48.3439 46.9229C48.0542 46.5908 47.6928 46.4248 47.2599 46.4248C46.8204 46.4248 46.4559 46.5892 46.1661 46.918C45.8764 47.2467 45.7316 47.7432 45.7316 48.4072Z" fill="black"/>
<path d="M50.7267 45.8145L52.7531 45.8145C53.2511 45.8145 53.6206 45.8568 53.8615 45.9414C54.1056 46.0228 54.3139 46.1742 54.4865 46.3955C54.6622 46.6169 54.7501 46.8822 54.7501 47.1914C54.7501 47.4388 54.698 47.6553 54.5939 47.8408C54.493 48.0231 54.34 48.1761 54.1349 48.2998C54.379 48.3812 54.5809 48.5342 54.7404 48.7588C54.9031 48.9801 54.9845 49.2438 54.9845 49.5498C54.9519 50.0413 54.7762 50.4059 54.4572 50.6436C54.1381 50.8812 53.6743 51 53.0656 51L50.7267 51L50.7267 45.8145ZM51.6056 47.9971L52.5431 47.9971C52.9174 47.9971 53.1746 47.9775 53.3146 47.9385C53.4545 47.8994 53.5799 47.8213 53.6906 47.7041C53.8012 47.5837 53.8566 47.4404 53.8566 47.2744C53.8566 47.001 53.7589 46.8105 53.5636 46.7031C53.3715 46.5957 53.0411 46.542 52.5724 46.542L51.6056 46.542L51.6056 47.9971ZM51.6056 50.2773L52.7628 50.2773C53.2609 50.2773 53.6027 50.2204 53.7882 50.1064C53.9738 49.9893 54.0714 49.7891 54.0812 49.5059C54.0812 49.3398 54.0275 49.1868 53.92 49.0469C53.8126 48.9036 53.6726 48.8141 53.5001 48.7783C53.3276 48.7393 53.0509 48.7197 52.67 48.7197L51.6056 48.7197L51.6056 50.2773Z" fill="black"/>
<path d="M58.8907 51L58.8907 43.8418L59.838 43.8418L59.838 50.1553L63.3634 50.1553L63.3634 51L58.8907 51Z" fill="black"/>
<path d="M64.0568 48.4072C64.0568 47.4469 64.3237 46.7357 64.8575 46.2734C65.3035 45.8893 65.8471 45.6973 66.4884 45.6973C67.2013 45.6973 67.784 45.9316 68.2365 46.4004C68.6889 46.8659 68.9152 47.5104 68.9152 48.334C68.9152 49.0013 68.8142 49.527 68.6124 49.9111C68.4139 50.292 68.1225 50.5882 67.7384 50.7998C67.3575 51.0114 66.9409 51.1172 66.4884 51.1172C65.7625 51.1172 65.1749 50.8844 64.7257 50.4189C64.2797 49.9535 64.0568 49.2829 64.0568 48.4072ZM64.9601 48.4072C64.9601 49.0713 65.1049 49.5693 65.3947 49.9014C65.6844 50.2301 66.049 50.3945 66.4884 50.3945C66.9246 50.3945 67.2876 50.2285 67.5773 49.8965C67.867 49.5645 68.0118 49.0583 68.0118 48.3779C68.0118 47.7367 67.8654 47.2516 67.5724 46.9229C67.2827 46.5908 66.9213 46.4248 66.4884 46.4248C66.049 46.4248 65.6844 46.5892 65.3947 46.918C65.1049 47.2467 64.9601 47.7432 64.9601 48.4072Z" fill="black"/>
<path d="M71.8693 50.2139L71.9962 50.9902C71.7488 51.0423 71.5275 51.0684 71.3322 51.0684C71.0131 51.0684 70.7657 51.0179 70.59 50.917C70.4142 50.8161 70.2905 50.6842 70.2189 50.5215C70.1473 50.3555 70.1115 50.0088 70.1115 49.4814L70.1115 46.498L69.4669 46.498L69.4669 45.8145L70.1115 45.8145L70.1115 44.5303L70.9855 44.0029L70.9855 45.8145L71.8693 45.8145L71.8693 46.498L70.9855 46.498L70.9855 49.5303C70.9855 49.7809 71.0001 49.9421 71.0294 50.0137C71.062 50.0853 71.1124 50.1423 71.1808 50.1846C71.2524 50.2269 71.3533 50.248 71.4835 50.248C71.5812 50.248 71.7098 50.2367 71.8693 50.2139Z" fill="black"/>
<path d="M76.2833 49.3301L77.1915 49.4424C77.0483 49.973 76.783 50.3848 76.3956 50.6777C76.0083 50.9707 75.5135 51.1172 74.9113 51.1172C74.1528 51.1172 73.5506 50.8844 73.1046 50.4189C72.6619 49.9502 72.4406 49.2943 72.4406 48.4512C72.4406 47.5788 72.6652 46.9017 73.1144 46.4199C73.5636 45.9382 74.1463 45.6973 74.8624 45.6973C75.5558 45.6973 76.1222 45.9333 76.5616 46.4053C77.0011 46.8773 77.2208 47.5413 77.2208 48.3975C77.2208 48.4495 77.2192 48.5277 77.2159 48.6318L73.3488 48.6318C73.3813 49.2015 73.5424 49.6377 73.8322 49.9404C74.1219 50.2432 74.4832 50.3945 74.9161 50.3945C75.2384 50.3945 75.5135 50.3099 75.7413 50.1406C75.9692 49.9714 76.1499 49.7012 76.2833 49.3301ZM73.3976 47.9092L76.2931 47.9092C76.254 47.473 76.1433 47.1458 75.9611 46.9277C75.6811 46.5892 75.3182 46.4199 74.8722 46.4199C74.4685 46.4199 74.1284 46.555 73.8517 46.8252C73.5782 47.0954 73.4269 47.4567 73.3976 47.9092Z" fill="black"/>
<path d="M78.2999 51L78.2999 45.8145L79.0909 45.8145L79.0909 46.5518C79.4718 45.9821 80.0219 45.6973 80.7413 45.6973C81.0538 45.6973 81.3403 45.7542 81.6007 45.8682C81.8644 45.9788 82.0613 46.1253 82.1915 46.3076C82.3217 46.4899 82.4129 46.7064 82.465 46.957C82.4975 47.1198 82.5138 47.4046 82.5138 47.8115L82.5138 51L81.6349 51L81.6349 47.8457C81.6349 47.4876 81.6007 47.2207 81.5323 47.0449C81.464 46.8659 81.3419 46.7243 81.1661 46.6201C80.9936 46.5127 80.7902 46.459 80.5558 46.459C80.1814 46.459 79.8575 46.5778 79.5841 46.8154C79.3139 47.0531 79.1788 47.5039 79.1788 48.168L79.1788 51L78.2999 51Z" fill="black"/>
<path d="M86.6544 45.8145L88.6808 45.8145C89.1788 45.8145 89.5483 45.8568 89.7892 45.9414C90.0333 46.0228 90.2417 46.1742 90.4142 46.3955C90.59 46.6169 90.6779 46.8822 90.6779 47.1914C90.6779 47.4388 90.6258 47.6553 90.5216 47.8408C90.4207 48.0231 90.2677 48.1761 90.0626 48.2998C90.3068 48.3812 90.5086 48.5342 90.6681 48.7588C90.8308 48.9801 90.9122 49.2438 90.9122 49.5498C90.8797 50.0413 90.7039 50.4059 90.3849 50.6436C90.0659 50.8812 89.602 51 88.9933 51L86.6544 51L86.6544 45.8145ZM87.5333 47.9971L88.4708 47.9971C88.8452 47.9971 89.1023 47.9775 89.2423 47.9385C89.3823 47.8994 89.5076 47.8213 89.6183 47.7041C89.729 47.5837 89.7843 47.4404 89.7843 47.2744C89.7843 47.001 89.6866 46.8105 89.4913 46.7031C89.2993 46.5957 88.9689 46.542 88.5001 46.542L87.5333 46.542L87.5333 47.9971ZM87.5333 50.2773L88.6906 50.2773C89.1886 50.2773 89.5304 50.2204 89.7159 50.1064C89.9015 49.9893 89.9991 49.7891 90.0089 49.5059C90.0089 49.3398 89.9552 49.1868 89.8478 49.0469C89.7404 48.9036 89.6004 48.8141 89.4279 48.7783C89.2553 48.7393 88.9786 48.7197 88.5978 48.7197L87.5333 48.7197L87.5333 50.2773Z" fill="black"/>
<path d="M94.9015 43.8418L99.545 43.8418L99.545 44.6865L95.8488 44.6865L95.8488 46.8936L97.5577 46.8936C98.1892 46.8936 98.6906 46.9538 99.0616 47.0742C99.436 47.1947 99.7355 47.4225 99.9601 47.7578C100.185 48.0898 100.297 48.4772 100.297 48.9199C100.297 49.2813 100.216 49.6198 100.053 49.9355C99.8933 50.248 99.6541 50.5036 99.3351 50.7021C99.0161 50.9007 98.4725 51 97.7042 51L94.9015 51L94.9015 43.8418ZM95.8488 50.1943L97.7433 50.1943C98.2544 50.1943 98.6368 50.0902 98.8907 49.8818C99.1479 49.6735 99.2765 49.361 99.2765 48.9443C99.2765 48.6481 99.2032 48.4007 99.0568 48.2021C98.9103 48.0036 98.7068 47.8717 98.4464 47.8066C98.186 47.7415 97.7417 47.709 97.1134 47.709L95.8488 47.709L95.8488 50.1943Z" fill="black"/>
<path d="M104.858 49.3301L105.766 49.4424C105.623 49.973 105.357 50.3848 104.97 50.6777C104.582 50.9707 104.088 51.1172 103.485 51.1172C102.727 51.1172 102.125 50.8844 101.679 50.4189C101.236 49.9502 101.015 49.2943 101.015 48.4512C101.015 47.5788 101.239 46.9017 101.689 46.4199C102.138 45.9382 102.72 45.6973 103.437 45.6973C104.13 45.6973 104.696 45.9333 105.136 46.4053C105.575 46.8773 105.795 47.5413 105.795 48.3975C105.795 48.4495 105.793 48.5277 105.79 48.6318L101.923 48.6318C101.956 49.2015 102.117 49.6377 102.406 49.9404C102.696 50.2432 103.057 50.3945 103.49 50.3945C103.813 50.3945 104.088 50.3099 104.316 50.1406C104.543 49.9714 104.724 49.7012 104.858 49.3301ZM101.972 47.9092L104.867 47.9092C104.828 47.473 104.718 47.1458 104.535 46.9277C104.255 46.5892 103.892 46.4199 103.446 46.4199C103.043 46.4199 102.703 46.555 102.426 46.8252C102.152 47.0954 102.001 47.4567 101.972 47.9092Z" fill="black"/>
<path d="M106.972 45.8145L111.054 45.8145L111.054 51L110.18 51L110.18 46.542L107.851 46.542L107.851 49.125C107.851 49.7272 107.831 50.1243 107.792 50.3164C107.753 50.5085 107.646 50.6761 107.47 50.8193C107.294 50.9626 107.04 51.0342 106.708 51.0342C106.503 51.0342 106.267 51.0212 106 50.9951L106 50.2627L106.386 50.2627C106.568 50.2627 106.698 50.2448 106.776 50.209C106.855 50.1699 106.907 50.1097 106.933 50.0283C106.959 49.9469 106.972 49.6816 106.972 49.2324L106.972 45.8145Z" fill="black"/>
<path d="M115.766 50.3604C115.44 50.637 115.126 50.8324 114.823 50.9463C114.524 51.0602 114.202 51.1172 113.857 51.1172C113.287 51.1172 112.849 50.9788 112.543 50.7021C112.237 50.4222 112.084 50.0658 112.084 49.6328C112.084 49.3789 112.141 49.1478 112.255 48.9395C112.372 48.7279 112.524 48.5586 112.709 48.4316C112.898 48.3047 113.109 48.2087 113.344 48.1436C113.516 48.098 113.777 48.054 114.125 48.0117C114.835 47.9271 115.357 47.8262 115.693 47.709C115.696 47.5885 115.697 47.512 115.697 47.4795C115.697 47.1214 115.614 46.8691 115.448 46.7227C115.224 46.5241 114.89 46.4248 114.447 46.4248C114.034 46.4248 113.728 46.498 113.529 46.6445C113.334 46.7878 113.189 47.0433 113.095 47.4111L112.235 47.2939C112.314 46.9261 112.442 46.6299 112.621 46.4053C112.8 46.1774 113.059 46.0033 113.398 45.8828C113.736 45.7591 114.128 45.6973 114.574 45.6973C115.017 45.6973 115.377 45.7493 115.653 45.8535C115.93 45.9577 116.134 46.0895 116.264 46.249C116.394 46.4053 116.485 46.6038 116.537 46.8447C116.567 46.9945 116.581 47.2646 116.581 47.6553L116.581 48.8271C116.581 49.6442 116.599 50.1618 116.635 50.3799C116.674 50.5947 116.749 50.8014 116.859 51L115.942 51C115.85 50.8177 115.792 50.6045 115.766 50.3604ZM115.693 48.3975C115.373 48.5277 114.895 48.6383 114.257 48.7295C113.896 48.7816 113.64 48.8402 113.49 48.9053C113.341 48.9704 113.225 49.0664 113.144 49.1934C113.062 49.3171 113.022 49.4554 113.022 49.6084C113.022 49.8428 113.109 50.0381 113.285 50.1943C113.464 50.3506 113.725 50.4287 114.067 50.4287C114.405 50.4287 114.706 50.3555 114.97 50.209C115.234 50.0592 115.427 49.8558 115.551 49.5986C115.645 49.4001 115.693 49.1071 115.693 48.7197L115.693 48.3975Z" fill="black"/>
<path d="M117.948 52.9873L117.948 45.8145L118.749 45.8145L118.749 46.4883C118.938 46.2246 119.151 46.0277 119.389 45.8975C119.626 45.764 119.915 45.6973 120.253 45.6973C120.696 45.6973 121.086 45.8112 121.425 46.0391C121.763 46.2669 122.019 46.5892 122.192 47.0059C122.364 47.4193 122.45 47.8734 122.45 48.3682C122.45 48.8988 122.354 49.3773 122.162 49.8037C121.973 50.2269 121.697 50.5524 121.332 50.7803C120.971 51.0049 120.59 51.1172 120.19 51.1172C119.897 51.1172 119.633 51.0553 119.399 50.9316C119.167 50.8079 118.977 50.6517 118.827 50.4629L118.827 52.9873L117.948 52.9873ZM118.744 48.4365C118.744 49.1038 118.879 49.597 119.15 49.916C119.42 50.235 119.747 50.3945 120.131 50.3945C120.522 50.3945 120.855 50.2301 121.132 49.9014C121.412 49.5693 121.552 49.0566 121.552 48.3633C121.552 47.7025 121.415 47.2077 121.142 46.8789C120.872 46.5501 120.548 46.3857 120.17 46.3857C119.796 46.3857 119.464 46.5615 119.174 46.9131C118.887 47.2614 118.744 47.7692 118.744 48.4365Z" fill="black"/>
<path d="M123.359 52.9971L123.261 52.1719C123.453 52.224 123.621 52.25 123.764 52.25C123.959 52.25 124.115 52.2174 124.233 52.1523C124.35 52.0872 124.446 51.9961 124.521 51.8789C124.576 51.791 124.665 51.5729 124.789 51.2246C124.805 51.1758 124.832 51.1042 124.867 51.0098L122.9 45.8145L123.847 45.8145L124.926 48.8174C125.066 49.1982 125.191 49.5986 125.302 50.0186C125.403 49.6149 125.523 49.221 125.663 48.8369L126.772 45.8145L127.651 45.8145L125.678 51.0879C125.466 51.6576 125.302 52.0498 125.185 52.2646C125.028 52.5544 124.849 52.766 124.648 52.8994C124.446 53.0361 124.205 53.1045 123.925 53.1045C123.756 53.1045 123.567 53.0687 123.359 52.9971Z" fill="black"/>
<path d="M131.664 49.1006L132.528 49.2129C132.434 49.8086 132.192 50.2757 131.801 50.6143C131.414 50.9495 130.937 51.1172 130.37 51.1172C129.661 51.1172 129.089 50.8861 128.656 50.4238C128.227 49.9583 128.012 49.2926 128.012 48.4268C128.012 47.8669 128.105 47.377 128.29 46.957C128.476 46.5371 128.757 46.223 129.135 46.0146C129.516 45.8031 129.929 45.6973 130.375 45.6973C130.938 45.6973 131.399 45.8405 131.757 46.127C132.115 46.4102 132.345 46.8138 132.445 47.3379L131.591 47.4697C131.51 47.1214 131.365 46.8594 131.156 46.6836C130.951 46.5078 130.702 46.4199 130.409 46.4199C129.967 46.4199 129.607 46.5794 129.33 46.8984C129.054 47.2142 128.915 47.7155 128.915 48.4023C128.915 49.099 129.049 49.6051 129.316 49.9209C129.582 50.2367 129.931 50.3945 130.36 50.3945C130.706 50.3945 130.994 50.2887 131.225 50.0771C131.456 49.8656 131.602 49.54 131.664 49.1006Z" fill="black"/>
<path d="M133.28 45.8145L134.159 45.8145L134.159 49.7695L136.596 45.8145L137.543 45.8145L137.543 51L136.664 51L136.664 47.0693L134.228 51L133.28 51L133.28 45.8145Z" fill="black"/>
<defs>
<clipPath id="clip0">
<rect width="72" height="23" fill="white" transform="translate(1.02747 0.973663) rotate(0.0419201)"/>
</clipPath>
</defs>
</svg>
